<svg width="109" height="109" viewBox="0 0 109 109" fill="none" xmlns="http://www.w3.org/2000/svg">
<path d="M69.0328 47.2332L54.4995 61.7666L39.9661 76.2999M3.63281 18.1666V90.8332C3.63281 92.7605 4.39841 94.6088 5.76117 95.9715C7.12393 97.3343 8.97224 98.0999 10.8995 98.0999H98.0995C100.027 98.0999 101.875 97.3343 103.238 95.9715C104.601 94.6088 105.366 92.7605 105.366 90.8332V32.6999C105.366 30.7727 104.601 28.9244 103.238 27.5616C101.875 26.1988 100.027 25.4332 98.0995 25.4332H54.4995L39.9661 10.8999H10.8995C8.97224 10.8999 7.12393 11.6655 5.76117 13.0283C4.39841 14.391 3.63281 16.2393 3.63281 18.1666ZM54.4995 83.5666C51.6367 83.5666 48.8019 83.0027 46.157 81.9071C43.5121 80.8116 41.1089 79.2058 39.0845 77.1815C37.0602 75.1572 35.4545 72.754 34.3589 70.1091C33.2633 67.4642 32.6995 64.6294 32.6995 61.7666C32.6995 58.9038 33.2633 56.069 34.3589 53.4241C35.4545 50.7792 37.0602 48.376 39.0845 46.3516C41.1089 44.3273 43.5121 42.7215 46.157 41.626C48.8019 40.5304 51.6367 39.9666 54.4995 39.9666C60.2812 39.9666 65.8261 42.2633 69.9144 46.3516C74.0027 50.4399 76.2995 55.9848 76.2995 61.7666C76.2995 67.5483 74.0027 73.0932 69.9144 77.1815C65.8261 81.2698 60.2812 83.5666 54.4995 83.5666Z" stroke="#8EE3F1" stroke-width="6"/>
</svg>
