<svg width="109" height="109" viewBox="0 0 109 109" fill="none" xmlns="http://www.w3.org/2000/svg">
<path d="M36.3328 61.7666L50.8662 76.2999L76.2995 47.2332M3.63281 18.1666V90.8332C3.63281 92.7605 4.39841 94.6088 5.76117 95.9715C7.12393 97.3343 8.97224 98.0999 10.8995 98.0999H98.0995C100.027 98.0999 101.875 97.3343 103.238 95.9715C104.601 94.6088 105.366 92.7605 105.366 90.8332V32.6999C105.366 30.7727 104.601 28.9244 103.238 27.5616C101.875 26.1988 100.027 25.4332 98.0995 25.4332H54.4995L39.9661 10.8999H10.8995C8.97224 10.8999 7.12393 11.6655 5.76117 13.0283C4.39841 14.391 3.63281 16.2393 3.63281 18.1666Z" stroke="#8EE3F1" stroke-width="6"/>
</svg>
